<svg xmlns="http://www.w3.org/2000/svg" xmlns:xlink="http://www.w3.org/1999/xlink" width="56" height="56" viewBox="0 0 56 56">
    <defs>
        <circle id="a" cx="28" cy="28" r="28"/>
    </defs>
    <g fill="none" fill-rule="evenodd">
        <mask id="b" fill="#fff">
            <use xlink:href="#a"/>
        </mask>
        <use fill="#FF0D35" xlink:href="#a"/>
        <path fill="#131313" fill-rule="nonzero" d="M28.41 11.753c6.616.037 12.597 5.6 13.105 12.193.62 5.167-2.136 10.319-6.496 13.036 5.585 1.695 10.348 5.84 12.64 11.23-4.18 4.271-9.893 6.735-15.717 7.78l1.83.008H24.11c-4.928-.986-9.834-2.778-13.68-6.108.994-2.86 2.614-5.443 4.608-7.72-2.569-2.352-5.369-4.458-7.803-6.952-1.112-1.15.822-2.942 1.927-1.866 2.792 2.172 5.308 4.666 8.026 6.914a38.244 38.244 0 0 1 4.936-2.718c-5.033-2.457-8.28-8.08-7.557-13.694.516-6.847 7.012-12.454 13.844-12.103zm-8.123 9.296c-2.748.903-2.248 4.263-2.15 6.518.022 1.755 1.717 3.143 3.434 2.987 4.525.007 9.057.097 13.575-.045 1.762-.105 2.964-1.89 2.807-3.57.12-2.112.314-5.204-2.277-5.913-5.115-.194-10.274-.231-15.39.023z" mask="url(#b)"/>
        <path fill="#131313" fill-rule="nonzero" d="M23.363 24.117c2.068-2.06 3.786 2.733 1.307 3.002-1.643.523-2.3-2.038-1.307-3.002zM30.755 23.99c1.023-.948 2.516.172 2.412 1.404.164 1.292-1.404 2.464-2.457 1.449-.746-.77-.731-2.12.045-2.853z" mask="url(#b)"/>
        <rect width="20.16" height="9.707" x="17.92" y="20.907" fill="#FFEFDA" mask="url(#b)" rx="2.987"/>
        <ellipse cx="32.107" cy="25.76" fill="#131313" mask="url(#b)" rx="1.493" ry="1.867"/>
        <ellipse cx="24.64" cy="25.76" fill="#131313" mask="url(#b)" rx="1.493" ry="1.867"/>
    </g>
</svg>
