<svg xmlns="http://www.w3.org/2000/svg" width="30" height="30" viewBox="0 0 30 30">
    <g fill="#FFF" fill-rule="nonzero">
        <circle cx="15.06" cy="15" r="2.64"/>
        <path d="M18.36 8.52h-6.6c-.96 0-1.8.3-2.34.84-.54.54-.84 1.38-.84 2.34v6.6c0 .96.3 1.8.9 2.4.6.54 1.38.84 2.34.84h6.54c.96 0 1.8-.3 2.34-.84.6-.54.9-1.38.9-2.34v-6.6c0-.96-.3-1.74-.84-2.34-.6-.6-1.38-.9-2.4-.9zm-3.3 10.56c-2.28 0-4.08-1.86-4.08-4.08 0-2.28 1.86-4.08 4.08-4.08 2.22 0 4.14 1.8 4.14 4.08 0 2.28-1.86 4.08-4.14 4.08zm4.26-7.38c-.54 0-.96-.42-.96-.96s.42-.96.96-.96.96.42.96.96-.42.96-.96.96z"/>
        <path d="M15.18.12C7.02.12.42 6.72.42 14.88s6.6 14.76 14.76 14.76 14.76-6.6 14.76-14.76C30 6.72 23.34.12 15.18.12zm7.86 18.24c0 1.38-.48 2.58-1.32 3.42-.84.84-2.04 1.26-3.36 1.26h-6.54c-1.32 0-2.52-.42-3.36-1.26-.9-.84-1.32-2.04-1.32-3.42v-6.6C7.14 9 9 7.08 11.82 7.08h6.6c1.38 0 2.52.48 3.36 1.32.84.84 1.26 1.98 1.26 3.36v6.6z"/>
    </g>
</svg>
