<svg xmlns="http://www.w3.org/2000/svg" width="30" height="30" viewBox="0 0 30 30">
    <path fill="#FFF" fill-rule="nonzero" d="M15 0c8.285 0 15 6.715 15 15 0 8.284-6.715 15-15 15S0 23.284 0 15C0 6.715 6.715 0 15 0zm7.507 11.686c0-3.302-2.797-6.377-7.049-6.38-5.289 0-7.956 3.792-7.956 6.955 0 1.914.725 3.618 2.28 4.253.254.104.483.004.557-.278.052-.196.173-.689.228-.894.075-.28.046-.377-.16-.62-.448-.53-.735-1.214-.735-2.184 0-2.813 2.105-5.331 5.48-5.331 2.99 0 4.633 1.827 4.633 4.266 0 3.21-1.42 5.92-3.53 5.92-1.164 0-2.036-.964-1.757-2.146.335-1.41.983-2.932.983-3.95 0-.911-.489-1.67-1.501-1.67-1.19 0-2.147 1.231-2.147 2.881 0 1.051.355 1.762.355 1.762l-1.431 6.066c-.426 1.801-.065 4.008-.034 4.231.018.132.188.163.264.064.11-.143 1.529-1.894 2.01-3.643.136-.495.783-3.06.783-3.06.388.739 1.517 1.388 2.72 1.388 3.578 0 6.007-3.263 6.007-7.63z"/>
</svg>
