<svg xmlns="http://www.w3.org/2000/svg" width="30" height="30" viewBox="0 0 30 30">
    <path fill="#FF0D35" fill-rule="nonzero" d="M15 0c8.285 0 15 6.715 15 15 0 8.284-6.715 15-15 15S0 23.284 0 15C0 6.715 6.715 0 15 0zm2.087 8.33c-1.49.543-2.433 1.942-2.326 3.473l.036.59-.597-.071c-2.17-.278-4.067-1.218-5.677-2.798l-.788-.784-.201.579c-.43 1.29-.155 2.653.74 3.57.477.506.369.578-.453.277-.286-.096-.538-.168-.561-.132-.083.084.203 1.181.43 1.616.31.604.942 1.194 1.633 1.544l.585.278-.692.01c-.668 0-.692.012-.62.266.238.784 1.18 1.617 2.23 1.979l.74.253-.644.386a6.677 6.677 0 0 1-3.197.892c-.537.012-.979.06-.979.096 0 .12 1.456.795 2.302 1.061 2.54.784 5.558.446 7.824-.892 1.61-.953 3.22-2.846 3.972-4.68.406-.976.811-2.761.811-3.617 0-.555.036-.627.703-1.29.394-.386.764-.808.836-.928.12-.23.107-.23-.5-.025-1.014.362-1.158.314-.656-.228.37-.387.81-1.086.81-1.29 0-.036-.178.024-.38.132-.215.12-.693.302-1.05.41l-.645.205-.584-.4c-.322-.216-.774-.458-1.013-.53-.61-.169-1.54-.145-2.09.049z"/>
</svg>
