<svg xmlns="http://www.w3.org/2000/svg" width="25" height="24" viewBox="0 0 25 24">
    <path fill="#868685" fill-rule="nonzero" d="M20.921 2.32h-2.605V1.057C18.316.49 17.842 0 17.236 0c-.578 0-1.078.464-1.078 1.057V2.32H8.816V1.057C8.816.49 8.342 0 7.736 0c-.604 0-1.078.464-1.078 1.057V2.32h-2.58C1.817 2.32 0 4.125 0 6.316v13.688C0 22.221 1.842 24 4.079 24H20.92C23.184 24 25 22.195 25 20.004V6.316c0-2.191-1.842-3.996-4.079-3.996zM4.08 4.408h2.605v1.263c0 .567.474 1.057 1.08 1.057.604 0 1.078-.464 1.078-1.057V4.408h7.369v1.263c0 .567.473 1.057 1.078 1.057.58 0 1.08-.464 1.08-1.057V4.408h2.552c1.079 0 1.947.85 1.947 1.908v2.449H2.132v-2.45c0-1.056.868-1.907 1.947-1.907zM20.92 21.912H4.08c-1.079 0-1.947-.85-1.947-1.908V10.88h20.736v9.125c0 1.057-.868 1.908-1.947 1.908z"/>
</svg>
