<svg xmlns="http://www.w3.org/2000/svg" width="19" height="14" viewBox="0 0 19 14">
    <path fill="#FFF" fill-rule="evenodd" d="M17.813 11.667c0 .118-.024.23-.057.337L12.47 6.417l5.344-4.084v9.334zM2.11 12.802l5.358-5.61L9.5 8.7l1.943-1.517 5.446 5.619c-.085.02-14.693.02-14.778 0zm-.924-1.135V2.333l5.344 4.084-5.287 5.587a1.128 1.128 0 0 1-.056-.337zm16.032-10.5L9.5 7 1.781 1.167H17.22zM16.625 0H2.375C1.063 0 0 1.045 0 2.333v9.334C0 12.955 1.063 14 2.375 14h14.25C17.937 14 19 12.955 19 11.667V2.333C19 1.045 17.937 0 16.625 0z"/>
</svg>
